<svg xmlns="http://www.w3.org/2000/svg" viewBox="0 0 628.84 193.91"><defs><style>.cls-1{fill:#333;}.cls-2{fill:#ef6004;}.cls-3{fill:#f9bcb8;}.cls-4{fill:#fe633e;}.cls-5{fill:#fd4435;}.cls-6{fill:#f8e3c3;}.cls-7{fill:#fbadab;}.cls-8{fill:#f42c04;}.cls-9{fill:#f33905;}.cls-10{fill:#ec2600;}.cls-11{fill:#f42210;}.cls-12{fill:#f03a04;}.cls-13{fill:#eb2201;}.cls-14{fill:#fd3905;}.cls-15{fill:#f58503;}.cls-16{fill:#f95002;}.cls-17{fill:#fd970a;}.cls-18{fill:#ee6903;}.cls-19{fill:#ec3b01;}.cls-20{fill:#f64c22;}.cls-21{fill:#fbfae0;}.cls-22{fill:#faf9bb;}.cls-23{fill:#feeb59;}.cls-24{fill:#faa70b;}.cls-25{fill:#fae59a;}.cls-26{fill:#feb010;}.cls-27{fill:#feca15;}.cls-28{fill:#feee54;}.cls-29{fill:#fe5827;}.cls-30{fill:#fe5233;}.cls-31{fill:#fe531c;}.cls-32{fill:#fe6e30;}.cls-33{fill:#fe7843;}.cls-34{fill:#fe4b13;}.cls-35{fill:#fe8220;}.cls-36{fill:#fca607;}.cls-37{fill:#fd8006;}.cls-38{fill:#fe9c46;}.cls-39{fill:#feb62c;}.cls-40{fill:#f69f06;}.cls-41{fill:#fbf9b9;}.cls-42{fill:#fed953;}.cls-43{fill:#fcf693;}.cls-44{fill:#feeb6c;}.cls-45{fill:#fecf3b;}.cls-46{fill:#fee612;}.cls-47{fill:#fed523;}.cls-48{fill:#feba1b;}.cls-49{fill:#fee40d;}.cls-50{fill:#fed343;}.cls-51{fill:#fe6841;}.cls-52{fill:#fe6741;}.cls-53{fill:#fe7347;}.cls-54{fill:#fea631;}.cls-55{fill:#febc49;}.cls-56{fill:#fecb52;}</style></defs><title>Fyyur</title><g id="Layer_2" data-name="Layer 2"><g id="Layer_1-2" data-name="Layer 1"><path class="cls-1" d="M180.16,92.64c0-20.4,0-40.8,0-61.2,0-2.22.48-3,2.86-3q41.73.14,83.47,0c2.07,0,2.65.51,2.58,2.59-.17,4.74-.18,9.49,0,14.23.09,2.26-.65,2.78-2.81,2.77-20.16-.07-40.32,0-60.48-.1-2.38,0-3.07.58-3,3q.22,14,0,28c0,2.33.71,2.69,2.8,2.68,17.49-.07,35,0,52.48-.1,2.46,0,3.14.75,3,3.12-.17,4.07-.18,8.16,0,12.23.11,2.38-.58,3.12-3,3.11-17.41-.11-34.82,0-52.23-.11-2.33,0-3.05.45-3,3,.12,17.07,0,34.14.12,51.21,0,2.45-.73,3.06-3.08,3-5.66-.17-11.33-.15-17,0-2.12.05-2.64-.64-2.64-2.68C180.19,133.78,180.16,113.21,180.16,92.64Z"/><path class="cls-1" d="M321.11,132.86c2-5.87,4-11.58,5.92-17.29q8.5-25,17-50c.44-1.31,1.14-1.57,2.37-1.56,5.66.05,11.33.09,17,0,2.07,0,2.59.32,1.78,2.46-4.46,11.81-8.78,23.68-13.16,35.52-7.46,20.18-14.86,40.38-22.43,60.51-2.45,6.52-4.87,13.08-8.73,19C315.88,189,309,193.2,300,193.78a80.16,80.16,0,0,1-15.94-.76c-1.12-.15-1.38-.69-1.37-1.64,0-4.74,0-9.49,0-14.23,0-1.62.7-1.68,2-1.46,3.42.58,6.77,1.37,10.37.85a11.69,11.69,0,0,0,9.54-7.07,95.56,95.56,0,0,0,4.15-12c.41-1.27-.2-2.27-.61-3.33Q291.37,110,274.53,65.89c-.63-1.65-.35-1.94,1.31-1.92,5.92.08,11.84.13,17.75,0,2.08-.06,3,.61,3.68,2.57,5.53,16,11.16,32,16.77,48q2.93,8.34,5.84,16.69A2.3,2.3,0,0,0,321.11,132.86Z"/><path class="cls-1" d="M414.51,132.86c1.69-4.9,3.36-9.75,5-14.61q8.89-26.18,17.75-52.38A2.33,2.33,0,0,1,439.92,64c5.74.1,11.49.09,17.24,0,1.74,0,2.16.3,1.5,2.08-7.27,19.54-14.41,39.13-21.71,58.66-6,16-11.47,32.23-18.15,48-2.25,5.3-4.88,10.4-9.27,14.33a24,24,0,0,1-12,6.2c-6.73,1.16-13.43.65-20.14-.22-1.38-.18-1.26-1.06-1.26-2,0-4.58,0-9.16,0-13.74,0-1.71.63-1.87,2.13-1.58,3.66.71,7.29,1.42,11.11.7A11.54,11.54,0,0,0,398,169.6c1.83-3.83,2.87-8,4.17-12a4.75,4.75,0,0,0-.52-3.34q-16.75-44-33.56-88c-.78-2-.36-2.32,1.62-2.29,5.83.11,11.66.15,17.49,0,2.05-.06,2.84.67,3.48,2.52q11.1,32,22.37,64C413.31,131.27,413.38,132.25,414.51,132.86Z"/><path class="cls-1" d="M532.51,144.58c-2.33,2.26-4,4.71-6.2,6.72-12.59,11.41-31.95,9.61-42.91,2.63-6.95-4.42-9.89-11.42-11.42-19.16a63.72,63.72,0,0,1-1.1-12.41c0-18.58,0-37.15-.06-55.72,0-2.24.61-2.83,2.8-2.76,5.16.16,10.33.13,15.5,0,1.89,0,2.37.54,2.36,2.4-.07,18.24,0,36.48-.05,54.72a35.63,35.63,0,0,0,1.61,11.8c2.12,6.14,6.57,9.3,12.92,10.19A24.91,24.91,0,0,0,521,140.84c6.42-3.26,9.3-9,10.46-15.78a51.81,51.81,0,0,0,.55-8.71c0-16.57.05-33.15-.06-49.72,0-2.24.62-2.82,2.8-2.75,5.24.16,10.49.11,15.74,0,1.65,0,2.12.51,2.11,2.13q-.06,44.48,0,88.95c0,1.44-.27,2.07-1.91,2-5.49-.1-11-.09-16.49,0-1.49,0-1.79-.52-1.76-1.87C532.57,151.63,532.51,148.1,532.51,144.58Z"/><path class="cls-1" d="M593.48,81.44c2.45-6.46,6.94-11.14,12.35-15,6.35-4.54,13.56-5.57,21.16-4.76,1.23.14,1.87.63,1.85,2.07q-.12,8,0,16c0,1.6-.54,2-2.06,1.8-4.29-.66-8.59-1-12.87.18-9.4,2.48-14.58,9.08-17.38,17.92a46.62,46.62,0,0,0-1.88,14c0,13.56-.06,27.13.08,40.7,0,2.33-.69,2.7-2.77,2.64-5.07-.15-10.16-.14-15.23,0-2,.06-2.66-.48-2.65-2.59.09-16,0-32,0-47.94,0-13.32,0-26.64,0-39.95,0-2.07.53-2.73,2.64-2.67,4.74.16,9.49.17,14.23,0,2.18-.08,2.62.71,2.56,2.7C593.39,71.53,593.48,76.49,593.48,81.44Z"/><path class="cls-2" d="M122,148.19c-.36,1.58-1.77,2.34-2.72,3.46s-1.88,2.27-1.09,3.79,2.37,1.23,3.77,1.11c.32,0,.64-.2,1-.26s1-.36,1.26.31c.17.48-.27.74-.6,1a2.31,2.31,0,0,0-1.18,1.53l-1.91,1.14c-2.81,1.7-5.57,3.5-8.55,4.93a6.42,6.42,0,0,1-1,.2c-.86.09-1.75,1.14-2.53.21s-.07-2,.42-3a10.76,10.76,0,0,0,1.56-3.65c.68-6.33,4.36-11.2,7.74-16.22a21.7,21.7,0,0,0,2.69-5.87,3.55,3.55,0,0,0-.42-3.3,1.52,1.52,0,0,1,2.11-1.12c1,.29,1,1.22.95,2.05a10.9,10.9,0,0,1-.53,3.16c-1.57,3.5-1.81,7.27-2.47,10.94C120.93,148.4,121.34,147.86,122,148.19Z"/><path class="cls-3" d="M3.9,97.08c0,.41.09.82.14,1.23.76,1.24-.11,2.45-.08,3.68a4.68,4.68,0,0,1-.18.76c-.47,2.87-1.4,5.63-1.64,8.54-.31,3.82.92,7.37,1.81,11a69.32,69.32,0,0,0,4,10.54c2,4.35,5.52,7.59,8.24,11.41a15.08,15.08,0,0,1,1.69,2.43,6.89,6.89,0,0,0,2.18,3c1.12,1.11,2,2.38,1.14,3.95s-2.55,1.2-4,.9c-2.31-.46-4.21-1.92-6.94-2.94,4,3.49,6.93,7.41,11.28,9.69a12.66,12.66,0,0,1,2.27,1.65,17.41,17.41,0,0,0,6.75,4.49,29.63,29.63,0,0,0,4.13,2.37,8.4,8.4,0,0,1,2.91,1.85.74.74,0,0,1-.1.66c-4.6-1.87-9.2-3.76-13.23-6.73a159.19,159.19,0,0,1-14-11.89,20.88,20.88,0,0,1-1.89-2A1.23,1.23,0,0,1,8.25,150a1.1,1.1,0,0,1,1.38-.2c1.68.71,3.34,1.47,5,2.2a16.2,16.2,0,0,0,2.76,1.1c.76.16,1.82.47,2.33-.31s-.52-1.4-.92-2.07c-4-6.64-10-12-13.23-19.15C3,125.94.78,120.2.09,114c-.36-3.18.42-6.31,1.25-9.31C2.05,102.13,2.17,99.31,3.9,97.08Z"/><path class="cls-4" d="M15.39,50.67c1.68-3.21,4.71-5.56,5.8-9.15a1,1,0,0,1,1.12-.76c.78.13.73.79.77,1.36.29,3.72.5,7.45-.61,11.09a.49.49,0,0,1-.64,0,1.63,1.63,0,0,1-.3-.67s0-.2-.05,0c-1.07,4.45-3.49,8.16-6.31,11.65a8.2,8.2,0,0,1-.86.91c-.81.71-1.27,2.37-2.67,1.69-1.19-.58-.87-2.09-.76-3.19.44-4.38,1.67-8.53,4.93-11.65,1.67-1.6,2.6-4,5.31-4.63,1.3-.3.46-2.08,1-3.64-1.47,2.73-3.28,4.54-4.82,6.56C16.86,50.74,16.24,51.35,15.39,50.67Z"/><path class="cls-5" d="M15.39,50.67c3.18-1.87,4.67-5.08,6.6-8.1.82,1.59.52,3.28.28,5a1.17,1.17,0,0,1-.52.79,16.49,16.49,0,0,0-9.39,11.2,15.14,15.14,0,0,0-.88,5.31c0,.55-.27,1.29.39,1.57s.85-.54,1.24-.91c3.34-3.12,5.21-7.21,7.46-11.07.68-1.19-.14-2.73,1.15-3.73.5.84.09,1.76.29,2.59-.1,4-2.14,7.1-4.47,10.09-.35.45-.75.87-1.09,1.34a34.07,34.07,0,0,1-5.14,5.72c-.9.74-2,1.42-2.2-.55C8.22,62.5,9.54,55.84,15.39,50.67Z"/><path class="cls-6" d="M112,164.72c2.81-1.53,5.41-3.43,8.47-4.49-.66,1.93-2.74,1.91-4.07,2.94a53.19,53.19,0,0,1-14.47,7.53c-7,2.59-13.72,6.09-21.24,6.52-6.73.39-13.39,2.26-20.24,1-2.63-.47-5.45.17-8-1.07.85-.88,1.89-.66,2.92-.53,3.47.65,7,.24,10.45.2a1.81,1.81,0,0,0,1.5-.77,6.47,6.47,0,0,1,2.78-2.32c1.47-.36,3-.43,4.46-.74,1.54,0,3.1-.23,4.43.84.69,2.22,2.17,2.36,4.19,1.82a103,103,0,0,0,10.48-3.49c3.07-1.4,6.33-2.29,9.48-3.48S109,165.91,112,164.72Z"/><path class="cls-7" d="M16.45,64.7c.63-2.23,2.59-3.61,3.46-5.8.73-1.86,1.3-3.79,2.1-5.63a1.21,1.21,0,0,1,.46-.05C22.59,58.15,19.94,61.65,16.45,64.7Z"/><path class="cls-8" d="M97.32,25.31a125.5,125.5,0,0,1,9.7,11c7.83,10,7.9,21.45,6.55,33.22-.55,4.77-1.51,9.55.47,14.26,1.16,2.78,3.47,3.67,6.15,3.87a6.58,6.58,0,0,0,6.42-3.37c1.76-2.69,1.74-5.8,2.75-9.24l2.45,4.7c-.4.94.27,2-.21,2.9a1,1,0,0,1-.67.2c-1-.2-1,.58-1.31,1.15-2.86,6-6,8-12.62,7.22-3.31-.39-6.78-.8-9.5-3.18-3.53-3.17-3.77-7.24-3-11.49a68.88,68.88,0,0,0,.41-18.86c-.32-3.3-.09-6.62-.5-9.94a23.27,23.27,0,0,0-4.71-11.86A86.32,86.32,0,0,0,87.75,23C81.71,17.85,76,12.31,70.3,6.76c-.49-.49-1-1.43-1.8-1s-.39,1.39-.29,2.11a17.19,17.19,0,0,1,.42,2.95,18.85,18.85,0,0,0,.47,4.43c-.07,5.05.37,10.1-.8,15.14a38.82,38.82,0,0,1-3.93,9.92c-1.44,2.62-4.09,2.88-6.65,3.28a4.31,4.31,0,0,1-1.6,0c-2.95-.52-3-.44-3.95,2.23-.64,1.89-.67,3.91-1.44,5.78-1.19,2.89-1.89,3.21-4.66,2.17-.92-.35-.88-.7-.54-1.45.71-1.56,1.79-3,1.89-4.77.68-1.8,1.34-3.61,2-5.41.36-.91.65-2,2-1.43,2,.79,4,.25,5.93,0,2.56-1.32,4.16-3.59,5.82-5.81.34-.44.44-1.06,1.06-1.26,1.68-1.88,1.83-4.24,2.09-6.57l.07-.89c1-3,.33-6,0-9,0-.48,0-1-.07-1.44-.53-2.82.29-5.81-1-8.55v0A45.2,45.2,0,0,1,65,2.18c-.08-.72-.28-1.7.9-1.92,7.27,5.31,14.54,10.62,21.47,16.39C90.75,19.47,94.17,22.24,97.32,25.31Z"/><path class="cls-9" d="M47.42,47.64c.45,2.17-1,3.72-1.84,5.65.85.35,2.8-1.68,2.43,1.18,2.09-1.77,2.57-4,3-6.3a23.54,23.54,0,0,1,.81-3.1c.88-2.67,1.3-2.84,4.18-1.88-1.7.64-2.31,1.84-2.67,3.65-1.06,5.22-3.4,10.06-5.14,15.08A66.13,66.13,0,0,0,45.1,77c-.48,4.72-.33,9.46-.93,14.18-1,7.87-7.88,10.57-14.49,9.82a18.18,18.18,0,0,1-6-1.65,16.16,16.16,0,0,1-7.08-8.47,2.93,2.93,0,0,1-.34-2c1.28-1.18,1.15,1.44,2.22.83a10.62,10.62,0,0,1,2.58,3.51,9.82,9.82,0,0,0,10.16,4.18c2.92-.79,4.39-2.89,5.14-5.54a37.39,37.39,0,0,0,1.47-10.07c0-8.1,2.26-15.71,4.84-23.26A70.39,70.39,0,0,1,47.42,47.64Z"/><path class="cls-10" d="M7.53,133.19C5.4,130,4.47,126.4,3.42,122.82c-.32-2.36-.71-4.69-1.25-7a18,18,0,0,1,.67-9c.42-1.49.27-3.1.59-4.63l0,0c.81-1.24.54-2.74,1-4.06A45.44,45.44,0,0,1,8.24,87.64c.64-.19.7-.87,1.1-1.27,1.45-1.46,2.19-1.28,3.12.82a4.25,4.25,0,0,1-1.13,2.44,35.36,35.36,0,0,0-6.2,18.68A15.28,15.28,0,0,0,9.21,120a18.64,18.64,0,0,1,5.31,10.69c.17,1.47.16,3,.44,4.44a2.34,2.34,0,0,1-.89,2.65c-1.09.67-2.11.18-3-.5A20.82,20.82,0,0,1,7.53,133.19Z"/><path class="cls-11" d="M12,87.21c-.22-1.3-.72-1.89-1.94-.81-.54.48-.95,1.17-1.79,1.24,1.64-4.38,4.65-7.92,7.29-11.68.3-.42.7-1.13,1.33-.79s.54,1,.54,1.57c0,1.9,0,3.8,0,5.7a28.2,28.2,0,0,0,1.08,7.25c-1.31,1-1.12-1.09-2-1-1.3-.54-.94-1.78-1.19-2.78s0-2-.72-2.75c-.52,1-.49,2.27-1.2,3.21C13,86.79,12.73,87.43,12,87.21Z"/><path class="cls-9" d="M66.49,17.26c.73,3,2,6,0,9C66.48,23.23,66.49,20.24,66.49,17.26Z"/><path class="cls-9" d="M65.91.26c-1,2.27-.18,4.67-.48,7a17,17,0,0,1-.88-6C64.5.42,64.69-.44,65.91.26Z"/><path class="cls-9" d="M65.43,7.27c1.87,2.67.75,5.69,1,8.55Z"/><path class="cls-9" d="M66.41,27.11c.18,2.46.2,4.88-2.09,6.57Q65.37,30.39,66.41,27.11Z"/><path class="cls-9" d="M57.44,40.75c-2,.55-3.94,1.83-5.93,0Z"/><path class="cls-12" d="M4.43,98.11c0,1.44.43,3-1,4.06-.37-1.38.65-2.53.63-3.86Z"/><path class="cls-13" d="M131.44,82.71c.15-1-.31-2,.37-2.94q2.07,6.51,4.15,13c.22,2.42,1.54,4.53,2,6.89a.51.51,0,0,1,.05.45c.4,1.33.35,2.75.9,4l.11,2.43a56.92,56.92,0,0,1,0,13.68,22.28,22.28,0,0,1-3.1,10c-2.72,5-5.76,9.86-10.44,13.39-1.37-.37-.89-1.36-.65-2.15,1.38-4.62,2.27-9.36,3.41-14a7.34,7.34,0,0,1,.47-1.68c2.7-5.16,2.35-10.69,2.19-16.27-.13-4.28-.14-8.63,1.75-12.69,1.48-3.2-.22-6.18-.79-9.22-.18-1-.56-1.91-.84-2.86A2.26,2.26,0,0,1,131.44,82.71Z"/><path class="cls-14" d="M131.44,82.71l0,2c1.18,3.23.23,6-1.81,8.55a5.68,5.68,0,0,0-1.05,5.61c1.93,6.32,1.69,12.82,1.48,19.3-.09,3-.87,5.92-3.34,8.06a4.27,4.27,0,0,0-1.51,3.06,90.06,90.06,0,0,1-2.9,17.18,1.13,1.13,0,0,0,.13.72c-.16.33-.33.67-.49,1l-2.81,2.15c1.33-3.42.86-6.46,1.87-9.23a32,32,0,0,0,1.75-6.11c.12-.73.5-1.6-.2-2.06s-1.53.12-2.11.74l-.31.29a2.46,2.46,0,0,1-2.42-.14c-1.47-1.6-1.08-3.3,0-4.76a12.88,12.88,0,0,0,2.46-7.88,99.71,99.71,0,0,1,1.54-16.07c.74-3.68,2.29-7.09,3.2-10.71.57-2.28,3-3.29,3.89-5.4,1.34-1.89.8-4.41,2.13-6.31Z"/><path class="cls-8" d="M122.46,147.18c-.77-.09-.88-.43-.71-1.19.94-4.19,1.86-8.38,2.44-12.64a18.32,18.32,0,0,0,.24-3.45,4.59,4.59,0,0,1,1.76-4.18c2.7-2,3.15-5,3.22-8,.16-6.71.37-13.43-1.82-19.94a4.26,4.26,0,0,1,1-4.4,10.53,10.53,0,0,0,2.82-8.69c1.45,2.37,1.46,5.19,2.37,7.74a5.49,5.49,0,0,1-.36,4.38c-2.2,4-1.8,8.34-1.93,12.59-.06,2,.19,4,.15,6.13-.16,8.34-4.75,15.63-5.35,23.82-.1,1.5-2.06,2.59-.88,4.32Z"/><path class="cls-8" d="M139,120.28V106.6A28,28,0,0,1,139,120.28Z"/><path class="cls-8" d="M137.94,99.68c-1-2.19-2.21-4.34-2-6.89C136.74,95.05,138.09,97.15,137.94,99.68Z"/><path class="cls-8" d="M138.89,104.17c-1.23-1.14-.92-2.62-.9-4A6.29,6.29,0,0,1,138.89,104.17Z"/><path class="cls-15" d="M112,164.72c-2.54,2.07-5.59,3.18-8.54,4.47a19.93,19.93,0,0,0-4,1.09c-.82-1.18.16-1.87.8-2.54a10.78,10.78,0,0,0,2.78-4.39c1.18-4.17,3.9-7.25,6.8-10.28,3.69-3.83,6.53-8.16,7.46-13.55.36-2.09.14-3.79-2-4.82a1.15,1.15,0,0,1-.54-.81.82.82,0,0,1,.45-.53,2,2,0,0,1,1.06-.06c1.33.53,2.63,1.36,4.1.39h0c1.48-.11,1.71.82,1.4,1.91-.79,2.77-1.58,5.56-3.46,7.84-1,1.22-1.68,2.65-2.58,3.91a25.73,25.73,0,0,0-4.8,11.73c-.23,1.76-1.37,3.16-2.12,4.71-.24.5-.73,1.07-.14,1.56s.88-.2,1.28-.42A3.23,3.23,0,0,1,112,164.72Z"/><path class="cls-16" d="M23.29,163.24l-1.88-1.38c-1.55-1.91-1.45-2.12,1.38-2.75-.35-1.11-1.41-1.29-2.2-1.78-1.68-1.05-1.74-1.53-.17-2.77s.93-2.43.4-3.75c-.24-.6-1.36-.85-.75-1.81,3-.49,4-2.22,2.82-5.36-1-2.48-1.8-5-2.64-7.52a26.48,26.48,0,0,1-2.52-7.54,5.67,5.67,0,0,0-3-4.31,7.6,7.6,0,0,1-3.74-5,48.55,48.55,0,0,1-.49-27.06c.47-1.66.67-3.6,2.53-4.54a2.45,2.45,0,0,1,.53,2.31,23,23,0,0,0,4,17.58,6.65,6.65,0,0,1,.64,3.15c-1,9.84,2.49,18.84,5.2,28A50.24,50.24,0,0,0,26.47,146c.9,2.43.57,4.87.21,7.35-.55,3.83-.59,7.62,1.53,11.1a1.7,1.7,0,0,1,.06,1.45c-.69.92-1.09,0-1.58-.26C25.52,164.88,24.59,163.79,23.29,163.24Z"/><path class="cls-17" d="M43,173.69l-5.48-2-3-1.53c.59-.65,1.31-.47,2.1-.28a11.37,11.37,0,0,1-3.08-7.39,22.21,22.21,0,0,0-4.74-12A16.89,16.89,0,0,1,25.59,139c.27-4.17,1.05-8.44-.23-12.63a7.85,7.85,0,0,1-.08-2.74c.18-3.24,1.31-4.39,4.59-4.67a6.13,6.13,0,0,0,1.47-.26,4.56,4.56,0,0,1,2.94.15,1.07,1.07,0,0,1,.49.66,10,10,0,0,1-1,4c-.81,1.09-.7,2.41-.73,3.61-.14,5.4-.36,10.79-.84,16.16a20,20,0,0,0,3.62,13.93,12.31,12.31,0,0,1,3,8.64c-.08,2,1.51,3.36,3,4.63,1.07.91,2.69,1.45,2.72,3.25A1.53,1.53,0,0,1,43,173.69Z"/><path class="cls-18" d="M29.47,150.66a18.8,18.8,0,0,1,4.6,11.21c.32,3.3,1.12,6.7,4.18,9-1.38-.16-2.43-1-3.72-.72-1.41-.72-3-1-4.12-2.34-.7-.74-1.87-.83-2.46-1.72a3.33,3.33,0,0,0-.71-2.32c-1.77-2.61-1.61-5.51-1.43-8.47s1.21-6.09.16-9.16C27.77,147.17,27.87,149.5,29.47,150.66Z"/><path class="cls-19" d="M21,136.17c.82,2.3,1.57,4.62,2.49,6.87a7.18,7.18,0,0,1,.52,3.12c-.15,3-1.2,3.75-4,3-1.57-.06-1.61-1.81-2.67-2.42-3.13-4.13-6.52-8.06-9.3-12.45a7.25,7.25,0,0,1-.47-1.11c1.31,1.23,2.58,2.51,4,3.65.65.54,1.5,1.2,2.43.49a1.87,1.87,0,0,0,.4-2.27c-.54-1.45-.27-2.92-.35-4.38,1.39-.41,2.12.56,2.79,1.45A21.38,21.38,0,0,0,21,136.17Z"/><path class="cls-20" d="M17.3,146.75c1.39.25,1.76,1.64,2.67,2.42a6.8,6.8,0,0,1,1.76,3.44c.05.53.15,1.11-.22,1.39-2.8,2.09-1.16,2.79,1,3.56.7.25,1.58,1,1.35,1.89-.3,1.21-1.29.4-2,.44-2.37.12-.06,1.34-.4,2a20.52,20.52,0,0,1-6.46-5,65.9,65.9,0,0,0-6.2-5.76c1.95-.86,3,.45,4.17.91,1.68.68,3.23,1.69,5,2,1,.2,2.28.47,2.93-.68s-.11-2-.88-2.87C19,149.38,17.6,148.44,17.3,146.75Z"/><path class="cls-12" d="M3.43,102.15c.84,3.91-1.14,7.58-1,11.45.12,3.1,1.72,6,1,9.22A29.15,29.15,0,0,1,3.43,102.15Z"/><path class="cls-20" d="M28,166.11a3.79,3.79,0,0,1,2.46,1.72c-2.92-.68-5.05-2.59-7.12-4.59C25.31,163.42,26.3,165.3,28,166.11Z"/><path class="cls-21" d="M74.47,173.66a12.29,12.29,0,0,1-4.51.5c-2.61-.51-3.94-2.7-5.46-4.47a30.5,30.5,0,0,1-5.9-12c-1.31-4.8,3.14-16,9.95-18.66A9.26,9.26,0,0,1,78,140.7c5.38,4.35,8,10.07,5.53,17.5a86,86,0,0,1-5.16,12.16A6.74,6.74,0,0,1,74.47,173.66Z"/><path class="cls-22" d="M74.47,173.66c5.84-5.83,8.59-13.28,9.26-21.11.54-6.2-5.81-14-12.94-13.42-3.75.29-5.85,2.9-7.72,5.38a18.37,18.37,0,0,0-4,11.31c.07,3.79,2,7.16,3.8,10.42A29.37,29.37,0,0,0,70,174.16l-2,2c-.46.15-.73-.12-1-.44-3.19-4.86-7.08-9.2-10.37-14-4.11-6-3.49-12.12,2.22-16.73,2.9-2.34,4.92-5.39,7-8.36,3.07-4.28,6.69-4.75,10.77-1.41,2.77,2.27,5.3,4.79,7.83,7.32a9.5,9.5,0,0,1,2.64,6.27c.61,7.3-1.85,13.91-4.35,20.53-.48,1.28-1.65,2.09-2.18,3.32-.37.64-.56,1.47-1.51,1.54A12.41,12.41,0,0,0,74.47,173.66Z"/><path class="cls-23" d="M79.08,174.18l.91-1.46c1.81-2.36,3.92-4.48,5.67-6.89,1.69-1.94,2.75-4.36,4.64-6.16a10.76,10.76,0,0,0,3.44-6.22c1.24-5.25,1.23-10.39-2.06-15a50.43,50.43,0,0,1-3.6-6,22.73,22.73,0,0,0-6-7.53c-1.56-1.24-2.94-2.69-4.42-4A8.29,8.29,0,0,0,68.85,119c-6.63,2.32-10.28,7.67-13.62,13.27-1.35,2.27-2.41,4.74-3.68,7.08-2.15,4-4,8-4,12.69a1.31,1.31,0,0,1-.68,1.25c-1.48-1-1.4-2.47-1.32-3.94a19.81,19.81,0,0,1,2.26-8.28,23.48,23.48,0,0,0,1.58-3.89c2.94-5,4.87-10.55,8-15.51,2.71-4.33,6.79-6.19,11.51-7a18.71,18.71,0,0,1,4.73,0,7.2,7.2,0,0,1,6,3.56,20.07,20.07,0,0,0,8.85,7.79,10.58,10.58,0,0,1,6.11,7.14,14.43,14.43,0,0,0,1.94,4A17.13,17.13,0,0,1,99,144.3c.27,2.16-.45,4.19-.86,6.25-1,2.7-2.77,5-3.8,7.64-3.66,4.13-6.76,8.74-10.57,12.74a13.66,13.66,0,0,0-3.12,4.42,32.31,32.31,0,0,0,5.56-1.24c1.63-.64,3.28-1.2,5-1.72.95-.29,1.94-.59,2.77.33a59.26,59.26,0,0,1-11.88,3.84C79.33,177.14,79,176.75,79.08,174.18Z"/><path class="cls-24" d="M94,172.72c-2.92-.32-5.26,1.69-8,2-.39-1.49.62-2.45,1.57-3.11,4.29-3,8-6.7,12-9.93a2.1,2.1,0,0,1,.91-.38,1.38,1.38,0,0,1,1,.26,25.24,25.24,0,0,1-5.57,8.79c1.3-.11,2.42-1.22,3.57-.2a6,6,0,0,1,4-.94Z"/><path class="cls-25" d="M67.46,175.65l.5.49c0,.67,0,1.49-.93,1.46-3.87-.13-7.76.59-11.59-.4l.08-.11c1.06-.87,2.33-.51,3.52-.61,1-.08,2.16.28,3-.73.9-.78,2-1.34,2.84-2.16C66.36,173.44,66.65,174.88,67.46,175.65Z"/><path class="cls-26" d="M35.46,157.67c-4.44-5.3-4.35-11.45-3.69-17.86a107.85,107.85,0,0,0,.39-11.1c0-1.81-.44-4,1.3-5.51a2,2,0,0,1,1.25,1.7c1.22,4.69,2.37,9.39,3.35,14.14-.48,4.54-.85,9.08-1,13.66a10.54,10.54,0,0,0,3.12,7.58c3.67,4.13,8.31,7.16,12.14,11.1.58.6,1.19,1.16,1.75,1.78.71.77,2,1.55,1.47,2.64s-2,.55-3.13.41A22.58,22.58,0,0,1,43,173.69l1.47-.05c1.45-.89,2.74,1,4.21.25C43.53,169.05,40.65,162.42,35.46,157.67Z"/><path class="cls-27" d="M52.44,176.21c.5,0,1,0,1.5-.06s1.12.16,1.25-.47a1.42,1.42,0,0,0-.51-1c-2.6-2.45-4.86-5.23-7.83-7.31-3.35-2.35-6-5.48-8.75-8.48-1.9-2.09-1.7-4.76-1.63-7.34a96.23,96.23,0,0,1,1-12.34,3.85,3.85,0,0,1,4.41-.75c1,1.5.14,3.2.5,4.81a83.36,83.36,0,0,0,3.1,10.13c0,1.95-.95,3.66-1.51,5.47a4.31,4.31,0,0,0,1.13,4.78c4,3.78,8.44,7.18,12.28,11.18.58.62,1.52.64,2.21,1.09.44.27.81.69,0,1a21.27,21.27,0,0,1-4.07-.15C54.49,176.49,53.37,176.92,52.44,176.21Z"/><path class="cls-28" d="M55.5,176.74l4.49-.09c.76-1,.29-1.89-.12-2.79a12.84,12.84,0,0,0-2.15-3.33c-3.57-3.93-6.39-8.44-9.86-12.45-1.18-1.36-2.43-2.74-2.64-4.68-.77-2.42-2-4.72-1.82-7.37.22-4.12,2.46-6.89,5.81-8.95a.73.73,0,0,1,.76.1A23.63,23.63,0,0,1,48.09,142c-1.53,3.6-3,7.25-1.12,11.21,1.34.07,1.24,1.35,1.72,2.12a23,23,0,0,0,2.13,3.07c3.08,4.49,6.89,8.43,9.85,13a10.27,10.27,0,0,1,1.81,4.29c.06,1.14-.5,1.59-1.62,1.55-1.78-.07-3.56-.08-5.34-.11A.82.82,0,0,1,55.5,176.74Z"/><path class="cls-29" d="M68,10.74c0-1.74-.76-3.39-.57-5.17.16-1.38.79-1.69,1.74-.79,2.82,2.67,6.1,4.87,8.38,8.11a4.94,4.94,0,0,0,1.14,1.3c5,3.31,8.65,8.13,13.45,11.64,3.35,2.46,5,6.33,7.76,9.32,4.44,4.82,5.44,10.86,5.49,17.06,0,4.64.77,9.24.61,13.9A70.63,70.63,0,0,1,105.07,77c-.73,3.91-.41,7.78,2.86,10.74-3.21-.47-6.07-1.57-8-4.41-1-1.42-1.39-3.19-2.76-4.35-.62-1.44-.31-3-.36-4.44-.09-3.06.23-6.14-.79-9.15-.62-1.83.28-3.61.92-5.32a27.33,27.33,0,0,0,1.86-8.75c.27-7.15-3.22-13-6.82-18.66-3.28-5.17-7.83-9.26-12.43-13.26A58.26,58.26,0,0,1,69.78,8.41c-1.06.55-.52,1.65-1.11,2.22A.47.47,0,0,1,68,10.74Z"/><path class="cls-30" d="M97.47,79.21c.71-.43,1.09,0,1.28.59,1.38,4.59,5.27,6.25,9.18,7.9a20.29,20.29,0,0,0,13.57,2.84c4.37-.61,6.6-3.77,7.86-7.74.19-.61.22-1.47,1.13-1.35.6.08.41.79.51,1.25-.12,2.26-.17,4.54-1.55,6.51-3.11,2.83-6.09,5.82-9.29,8.55-2.24,1.91-4.27,3.9-4.64,7-2.66,1.14-5.08,2.92-8.12,3a3.6,3.6,0,0,1-1.49-.29c-2.45-2.07-3-6.74-1-9.71,2.76-4.31,2.74-4.29-.76-7.81-1.53-1.53-3.17-2.92-4.79-4.34-1.85-1.62-3-3.59-2.12-6.17Z"/><path class="cls-31" d="M68,10.74h.47c1.14-.11,1.38.73,1.58,1.55a79.51,79.51,0,0,1,2.06,11.27,14.34,14.34,0,0,1-.33,4.7c-.87,3.72-2,7.37-2.85,11.11-.89,4-2.38,5-6.46,5.08-1.67,0-3.33.06-5,0s-2.57.47-2.58,2.2c-3.85,8.69-5.23,18-7.06,27.23a17.21,17.21,0,0,0-.16,4.24C48,83.44,47.22,88.72,46.56,94a8.84,8.84,0,0,1-3.73,6.25,22,22,0,0,1-7.21,3.34,5.42,5.42,0,0,1-3.21.08c-2.66-1-5.28-2-7.83-3.25-.66-.32-1.32-.78-1.11-1.73,4.59,1.71,9.09,2.66,14,.68A8.58,8.58,0,0,0,43,93.19a31.81,31.81,0,0,0,1-8.6,75.14,75.14,0,0,1,6.82-31.77,19.48,19.48,0,0,0,2-6.9c.11-2.51,1.12-3,3.17-2.73l1.51,0c1.93-.38,4-.24,5.78-1.23a4.31,4.31,0,0,0,2.51-2.63c.84-3.89,2.64-7.48,3.12-11.52a50.1,50.1,0,0,0-.42-12.6A10.84,10.84,0,0,1,68,10.74Z"/><path class="cls-9" d="M68.47,15.23a29,29,0,0,1-.76,20,5.39,5.39,0,0,0-.65,1.6c-.17,5.07-2.93,6.39-8.09,6.4H57.48c.41-.56,1-.44,1.59-.49a6.19,6.19,0,0,0,5.24-3.56c3.5-6.42,4.46-13.28,4.16-20.43C68.42,17.56,68.47,16.4,68.47,15.23Z"/><path class="cls-32" d="M23.47,98.69a14.64,14.64,0,0,0,20,.25,8.28,8.28,0,0,0,2.51-5c.74-6.25.9-12.54,1.15-18.84.19-4.65,1.38-9.31,2.52-13.87,1.09-4.39,1.82-8.92,3.92-13a16.71,16.71,0,0,1,.92-1.44,2.58,2.58,0,0,1,1.09,2.07c.11,1.8-.69,3.4-1.15,5.07-2,7.48-4.66,14.82-4.74,22.69a5.67,5.67,0,0,0,.5,2.9,14,14,0,0,1,0,2.42c-.58,9.63-1.64,19.13-5.46,28.18a17,17,0,0,1-9,9.11,1.3,1.3,0,0,1-1.2,0l-3,0c-4,.07-6.94-1.94-9.3-4.87-1.76-2.18-3.59-4.32-5.17-6.64a21.7,21.7,0,0,1-4.12-17.5,17,17,0,0,0,.08-2.48,1.23,1.23,0,0,1,0-1.5c.72-1.25.44-2.86,1.48-4,.9,1.24.39,2.48.12,3.78-1,4.6-.76,9,1.89,13.15a9.59,9.59,0,0,0,6.27,4.12c.72.16,1.59.38,2-.48s-.32-1.23-.81-1.66c-1.44-1.25-2.93-2.47-4.22-3.84C18,95.5,15.92,93.69,17,90.7A20,20,0,0,0,23.47,98.69Z"/><path class="cls-33" d="M17,90.7a7.94,7.94,0,0,0,2.79,5.87,43.45,43.45,0,0,0,4.67,4.11c.95.65,1.83,1.55,1.26,2.64s-1.81,1-2.94.73c-5.43-1.25-9-6-9.35-11.75-.23-3.47.94-6.69,1.05-10.07.09-.22.12-.6.26-.65.82-.29.7.4.76.83.28,2.11.22,4.27,1,6.29C16.65,89.37,16.81,90,17,90.7Z"/><path class="cls-12" d="M13,86.22c0,.5,0,1,0,1.5C11.1,90.65,10.59,94,10,97.33a48.11,48.11,0,0,0,1.77,22.27c.51,1.63,1.16,3.05,2.62,3.68a6.61,6.61,0,0,1,4.15,5.93c.26,2.49,1.44,4.69,2.38,7-2.19,0-3.08-1.82-4.2-3.14A7.39,7.39,0,0,0,14,130.68a14.5,14.5,0,0,1-.9-3.07,8.61,8.61,0,0,0-2.95-5.55c-4.58-4.56-6.13-9.9-5.37-16.45a36.48,36.48,0,0,1,7.05-17.68,2.05,2.05,0,0,0,.16-.72Z"/><path class="cls-34" d="M115.45,104.67c-.93-2.33.6-3.92,2-5.13,4-3.45,7.33-7.66,12-10.33,0,.16,0,.39-.08.48-5.65,5.64-6.36,13.21-7.71,20.43-.76,4-.66,8.23-.79,12.37-.07,2.21-.35,4.23-1.9,6-1.32,1.49-2.19,3.17-1,5.2a1.23,1.23,0,0,1-1.5,0l-1,0c-2.4-1.3-3.39-3.6-3-6.72a39.18,39.18,0,0,1,1.44-6.28C115.39,115.42,116.3,110.13,115.45,104.67Z"/><path class="cls-2" d="M116.46,133.69l1.5,0,2.49,0C119.12,135.12,117.79,134.63,116.46,133.69Z"/><path class="cls-35" d="M115.45,104.67c1.89,3.18,1.16,6.58.56,9.85-.78,4.27-2.12,8.43-2.91,12.7a6.93,6.93,0,0,0,2.37,6.44l-.52,0c-1.53.14-2.09-1.16-3-2a4.83,4.83,0,0,1-.68-2.92c0-1.66-.09-3.33.65-4.9a3.2,3.2,0,0,0-.49-3.06c-1.55-2.78-3.9-5-5.55-7.66-1-1.69-1.71-3.64-3.63-4.63-.5-.62-1.76-.8-1.2-2,1.21-.62,2.19.35,3.3.46s2,.94,3,.23a12.85,12.85,0,0,0,5.75-2C113.92,104.75,114.55,104.19,115.45,104.67Z"/><path class="cls-36" d="M112.46,131.69l2.49,2c3.91,2.68,4,2.7,2.75,7.45a26.42,26.42,0,0,1-6.7,11.68c-3.11,3.25-6.3,6.38-7.37,11-.61,2.62-3.23,3.93-4.16,6.34-1.24-.23-2.15.62-3.22,1-.48.15-1.23.34-1.51-.36s.35-.82.76-1.08a8,8,0,0,0,3.29-4.18c.57-1.52,1.82-2.5,2.66-3.8-.28-1,.44-1.54,1-2.08a25.57,25.57,0,0,0,8.78-18.37,70.81,70.81,0,0,0,.54-7.71A2.09,2.09,0,0,1,112.46,131.69Z"/><path class="cls-37" d="M17,107.7a11.92,11.92,0,0,1,3.46,3.47,17,17,0,0,0,11,8c-.2.14-.38.38-.6.41-1.55.24-3.48-.48-4.35,1.55a9.36,9.36,0,0,0-.17,6.55,11.52,11.52,0,0,1,.3,4c-.11,4.26-.71,8.54-.12,12.79.32,2.32,2.07,4,3,6.12-2-.88-2.19-3.11-3.5-4.5-3.22-4.91-4-10.73-6-16.11a49.8,49.8,0,0,1-2.55-19.44A14.8,14.8,0,0,0,17,107.7Z"/><path class="cls-38" d="M101,106.69c.38.63,1.3.71,1.5,1.51-2.7,1.06-5.57.67-8.35,1a9.26,9.26,0,0,1-5.24-6.57,36.15,36.15,0,0,1-1.06-9.89,28.89,28.89,0,0,0-.94-8.62c-1.22-4.67-4.69-7.35-9.56-6.67C68.07,78.75,61,82.88,57.3,92.1l-5.73,14.33c-1.64,4.11-4.6,7.25-7.88,10.11-2,1-3.92,2.06-6,2.9-1,.42-2.08,1.11-3.23.27,0-.18,0-.36,0-.54,7.34-2.71,9.8-9.07,11.86-15.76a60.12,60.12,0,0,0,2.64-17c0-1.56.73-3.06.49-4.66.92-1.35.67-3,1.17-4.49,2.07-6.11,6.07-11,9.55-16.3a99.71,99.71,0,0,1,6.46-8.22c4.16-5,7.18-10.63,6.68-17.5a8.18,8.18,0,0,1,0-1C73.4,33,73.24,31.55,74.7,31s2.12.58,3,1.33c4.41,3.73,8.48,7.82,11,13,2.15,4.38,5.37,8.25,6.38,13.17a69.39,69.39,0,0,1,1.73,21.25c-.24,4.82-.81,9.62-1,14.42-.16,4.16.77,8.32,4.29,11.29A2.24,2.24,0,0,1,101,106.69Z"/><path class="cls-39" d="M34.49,119.71c3.35-.27,5.84-2.72,9-3.52.71,1,.23,2.09.06,3.12a24.92,24.92,0,0,0-.09,7.9,38.51,38.51,0,0,0,.09,8.45c.23,1.26,0,2.53-1.57,3-1.54-.22-3,.4-4.49.52-1.37-5.32-2.31-10.75-4-16A8.55,8.55,0,0,1,34.49,119.71Z"/><path class="cls-40" d="M35.46,157.67c3.7,3.12,7.11,6.49,9.24,10.94a11,11,0,0,0,3.95,4c.62.45,1.6,1,1.13,2s-1.31-.1-2,0c-1.22.18-2.12-.91-3.3-1-1.23-1.24-2.68-2.21-4-3.35s-2.82-2.84-2.47-4.92C38.54,162.27,37,160,35.46,157.67Z"/><path class="cls-41" d="M67.46,175.65l-2.5-2c-1.93-.55-3.28-2-4.59-3.33-3.68-3.78-6.82-8-8.23-13.17-1.46-5.33,0-10.21,3.62-14.37a20.83,20.83,0,0,1,5.86-5c2.47-1.32,4.06-3.62,5.59-5.91,2.18-3.26,3.58-3.62,7.08-1.78a34.45,34.45,0,0,1,11.22,9.32,17.48,17.48,0,0,1,3.65,15A68.4,68.4,0,0,1,86,166.17c-1.55,2.59-3.81,4.53-6,6.55,2.83-3.78,3.76-8.36,5.28-12.68s2.2-8.93.85-12.95c-2.12-6.34-7.58-10.31-13.4-13.25-2-1-4.3.11-5.77,2.29a44.18,44.18,0,0,1-8.87,10.3c-4.32,3.48-4.59,9.91-1.28,14.36,3.11,4.18,5.93,8.57,9.39,12.49A3.71,3.71,0,0,1,67.46,175.65Z"/><path class="cls-42" d="M50,137.18h-.5c-.74-3.91,0-7.74.55-11.59,5.18-3.38,6.62-9.13,9-14.28a45.63,45.63,0,0,1,9.67-13.2,24.31,24.31,0,0,0,3.54-4.49c.67-1.08,1.53-2.15,3-1.64s1.52,1.81,1.32,2.94a29.15,29.15,0,0,0,.74,12.36,33.63,33.63,0,0,0,2,6.16,7,7,0,0,0,4.22,4,12.91,12.91,0,0,1,6.32,4.27c1.32,1.73,3.81,2.08,5.12,3.92s1.36,4.07,1.55,6.16a21.65,21.65,0,0,0,1.93,7.4,9.78,9.78,0,0,1,.89,3.59c0,.62.16,1.41-.87,1.43-.6-4.8-4.13-8.38-5.36-13-.54-2-2.35-3.44-4.29-4.32a21.13,21.13,0,0,1-10.14-8.82,5.27,5.27,0,0,0-3.77-2.6c-5.85-1.16-11.31.13-15.44,4.28-2.5,2.52-4.09,6.05-5.47,9.44A63.7,63.7,0,0,1,50,137.18Z"/><path class="cls-43" d="M86,166.17A31.94,31.94,0,0,1,87.81,158c2.9-9.62,0-17.13-7.85-23.19a42,42,0,0,0-7-4.6c-1.87-.92-3.42-.77-4.64,1.28a27.14,27.14,0,0,1-7.95,8c-7.9,5.69-10.78,14.07-5,23.41,2.61,4.24,6,7.56,9.64,10.82-.16,1.5-1.33,1.72-2.48,2-1.87-2.75-3.28-5.76-5.48-8.33a64.23,64.23,0,0,1-6.55-8.65c-3.13-5.23-2.14-10.38.43-15.42,2.32-4.55,5.64-8.43,8.78-12.41,2.62-3.31,6.42-5.09,10.06-6.78,3.23-1.49,6.32.48,9,2.34,5.7,3.93,9.3,9.68,12.82,15.43a13.2,13.2,0,0,1,1.67,9.62c-.59,3-.83,6.13-2.76,8.71C88.78,162,87.83,164.44,86,166.17Z"/><path class="cls-44" d="M90.47,160.16c.75-3,1.6-5.87,2.13-8.9a13.24,13.24,0,0,0-1.94-9.67c-3.33-5.32-6.83-10.48-11.9-14.47-3.67-2.89-7.4-3.11-11.91-.75-8,4.22-12.25,11.59-16.23,19.12-2.24,4.23-1.71,8.76-.17,13.18-1.84-1.41-2.35-3.65-3.48-5.5-.67-6.66,3.05-11.87,5.7-17.44,2.48-5.21,5.45-10.12,9.9-13.83,5.64-4.68,10.13-5.89,14.78-2.05,4.41,3.65,9.34,7.18,11.67,12.9a15.86,15.86,0,0,0,2.1,3.66c5,6.46,5.06,13.34,2,20.59A7.13,7.13,0,0,1,90.47,160.16Z"/><path class="cls-45" d="M98.47,144.16c.84-1.49.17-3-.46-4.16-1.82-3.33-2.05-7-2.49-10.55a9.53,9.53,0,0,0-1.06-3.77,10.74,10.74,0,0,1-.24-5.34,1,1,0,0,1,1.35-.19c2.63,1.4,5.56,2.15,8.13,3.69a5.2,5.2,0,0,1,1.39,2c1.31,3.46.81,7,.38,10.51a18.27,18.27,0,0,1-2.28,4.93,39.92,39.92,0,0,0-3.73,7.27c-.34.93-.49,2.2-2,2.12C97.91,148.5,98.59,146.39,98.47,144.16Z"/><path class="cls-46" d="M100.47,161.66c-4.17,3-7.51,7.09-12,9.79a6.36,6.36,0,0,0-2.56,3.25c-2,.54-3.85,1.33-6.19,1.16A158.62,158.62,0,0,1,94,158.15c2.36-2,7.74-2.55,9.7-1C104.17,159.77,101.62,160.22,100.47,161.66Z"/><path class="cls-47" d="M103.47,157.64a1.92,1.92,0,0,0-2.32-.95c-2.41.44-4.79,1-7.19,1.46.49-2.82,2.62-4.87,3.52-7.5.29-.28.74-.51.84-.84,1.37-4.8,4.53-8.7,6.64-13.13,1.16.09,1.13,1.08,1.27,1.83,1.1,6,0,11.89-1.28,17.74C104.8,157,104.46,157.71,103.47,157.64Z"/><path class="cls-48" d="M103.47,157.64c1.56-1.74,1.45-4,1.69-6.08.56-4.94,1.73-9.95-.2-14.88,0-3.67.77-7.38-.5-11,3.2-1.37,6-.25,7.48,3a5.36,5.36,0,0,0,.52,3,61,61,0,0,1-1.76,16.48A23.74,23.74,0,0,1,102.94,160a19.77,19.77,0,0,0-1.49,1.66h-1C101.17,160.09,103.21,159.53,103.47,157.64Z"/><path class="cls-49" d="M45.47,153.65c4.05,5.72,8.36,11.23,12.84,16.62a15,15,0,0,1,2.76,4.94c.39,1.19,0,1.53-1.08,1.44-2.39-.47-4-2-5.56-3.78-2.75-3.14-6.25-5.44-9.31-8.24-2.14-2-2.65-4-1.54-6.7.58-1.37.93-2.83,1.38-4.25C45.12,153.45,45.29,153.43,45.47,153.65Z"/><path class="cls-50" d="M45.47,153.65l-.51,0a61.61,61.61,0,0,1-3.18-10.15,10.51,10.51,0,0,1,.18-4.87,3.43,3.43,0,0,0,1-3.18,17.43,17.43,0,0,1,0-8.31,7,7,0,0,1,4.54-3.9,3.37,3.37,0,0,1,3,1.91,117.46,117.46,0,0,1-1,12A19,19,0,0,1,47.85,139a10.38,10.38,0,0,0-3,12.3A5.11,5.11,0,0,1,45.47,153.65Z"/><path class="cls-51" d="M101,106.69c-2.47-1.17-3.77-3.16-4.71-5.73-1.59-4.32-.86-8.56-.57-12.94.47-7.08,1.37-14.17.46-21.32-.37-2.89-1.21-5.65-1.68-8.49a13.25,13.25,0,0,0-2-5.77c-1.51-2.53-2.16-5.2-1.08-8.09a4.13,4.13,0,0,0-.5-3.35c-.9-1.88-2-3.63-3.06-5.43A2.94,2.94,0,0,0,84.07,34c-3,.9-5.44.25-7.43-2.43-1.4-1.9-2.9-1.53-3.57.68-.95,3.16-2.37,6.21-2,9.67a2.78,2.78,0,0,1-2.21,3.21c-4.46,1-8.68,2.89-13.17,3.78a1.14,1.14,0,0,1-.72-.14l-.51-2c-.45-3-.45-3,2.63-3,1.82,0,3.65-.07,5.47,0,4.31.21,4.67-.58,5.7-4.62.84-3.26,1.59-6.58,2.53-9.8,1.41-4.82.23-9.35-.87-13.85-.38-1.54.45-3.63-1.45-4.75.24-1.24-.71-3.14.56-3.61s1.79,1.52,2.42,2.47c4.21,6.33,10.46,10.64,15.68,16a48.59,48.59,0,0,1,12,20.65c1.28,4.35.44,8.9-1.21,13.16a13.45,13.45,0,0,0-.74,8.16c.79,3.75.28,7.77.34,11.68h0a38.54,38.54,0,0,0-.28,7.12,3.32,3.32,0,0,0,1.76,2.84,12,12,0,0,1,2.21,1.6c1.79,1.81,1.54,3.34-.74,4.48-3.32,1.67-3.39,2.72-.26,4.85a4.75,4.75,0,0,1,2.35,2.77,6.49,6.49,0,0,0,3.46,4.31h1.49C105.15,108.72,103.12,106.81,101,106.69Z"/><path class="cls-52" d="M106,107.18c-2.26-.41-3.74-1.56-4-4-.16-1.51-1.39-2.17-2.59-2.77a3.43,3.43,0,0,1-2.27-3.25c0-1.66,1.41-1.94,2.68-2.35,2.61-.85,3.06-2.39.71-3.67-4.22-2.31-4.68-5.53-3.54-9.59.22-.76-.25-1.68.52-2.33-.32,3.15,1.06,5.34,3.62,7.09s4.22,4.2,6.6,6c1.22,1,.55,2.23-.36,3.26-1.78,2-3.21,4.09-2.93,7.08C104.54,104.4,104.71,105.92,106,107.18Z"/><path class="cls-53" d="M55,48.72a89.47,89.47,0,0,1,12.54-3.87c2.2-.45,3.34-1.36,2.95-3.66-.65-3.75,1.54-6.88,2.28-10.32.37-1.76,2.58-2.05,3.69-.29,2.11,3.35,4.85,3.56,8.18,2.64,1.72-.47,3-.1,3.65,1.89.37,1.14,1.39,2.06,1.95,3.16,1.24,2.45,2.81,4.63,1.42,7.86-1,2.38.55,5,1.73,7.31a8,8,0,0,1,1.09,4.77A80.06,80.06,0,0,0,83.63,38.86c-2-2.74-4.89-5-7.58-7.16-1.44-1.17-2,.05-2.09,1.45-.16,2.55.24,5.11-.39,7.68a29.54,29.54,0,0,1-7,12.94c-3.36,3.71-6,7.91-8.93,11.91-3.62,4.92-5.9,10.46-8.2,16a3.34,3.34,0,0,1,.49-2,2.6,2.6,0,0,1-.26-2.39c.57-1.83.89-3.73,1.57-5.52a18.55,18.55,0,0,0,1.23-8c-.24-3.37,1-6.69,1.47-10.05C53.92,52,55.21,50.5,55,48.72Z"/><path class="cls-51" d="M54,53.72c.14,3.06-1.08,6.2-.72,9,.6,4.65-1.44,8.49-2.24,12.69-.28,1.45-1.38,2.69-1,4.27-2-2.13-1.18-4.83-.85-7.07a136.43,136.43,0,0,1,4.35-18.09A3.39,3.39,0,0,1,54,53.72Z"/><path class="cls-54" d="M111.94,128.67c-1.78-2.77-4.56-3-7.48-3-.33-.51-.67-1-1-1.52-4.08-3.9-6.25-9.09-9.32-13.68-.35-.53-.75-1.14-.17-1.8a37.14,37.14,0,0,1,8.49-.49,2.89,2.89,0,0,1,2.49,1.84c1.63,4,5,6.75,7,10.39.84,1.47,1.36,2.72.29,4.34C111.53,125.92,112.09,127.37,111.94,128.67Z"/><path class="cls-55" d="M94,108.69c2.48,4.15,4.53,8.57,7.61,12.36a7.2,7.2,0,0,1,1.88,3.12,63.87,63.87,0,0,1-9-4c-2.43-1-3.89-3.05-5.31-5-2.55-3.46-5.13-6.72-9.06-8.74-2.14-1.1-2.64-3.35-2.72-5.58-.13-3.42.53-6.8.71-10.2,0-.58.22-1.15.2-1.73s.07-1.25-.59-1.52-.93.21-1.31.52a29.12,29.12,0,0,0-5.47,5.1c-2.81,3.82-6,7.34-8.54,11.39a14.6,14.6,0,0,1-5.11,5c-2.31,1.36-3.54,3.7-4.73,6-1.48,2.87-2.75,5.87-5.06,8.23-1.93.61-2.85,2.52-4.5,3.49-1.21-3.72-.34-7.35.5-11,5.58-4.89,8.13-11.43,10.62-18.2,2-5.54,4.08-11.41,8.83-15.4A24.68,24.68,0,0,1,80,76.8c4.15.15,6.38,3.13,7.56,7.1,1.54,5.16.47,10.4,1.32,15.57C89.49,103.29,90.72,106.46,94,108.69Z"/><path class="cls-56" d="M47.47,123.68c2.37-4.26,4.29-8.76,7.15-12.74a6.91,6.91,0,0,1,2.8-2.36,10.58,10.58,0,0,0,4.18-4.11A111.22,111.22,0,0,1,72.55,90.4c1.18-1.26,2.61-2.29,3.91-3.45.51-.45,1-.92,1.75-.56A1.57,1.57,0,0,1,79,88.11c-.23,2.88-.39,5.76-.79,8.62a20.62,20.62,0,0,0-.11,5.2,5.12,5.12,0,0,0,2.82,4.4,16.92,16.92,0,0,1,7.53,7c1.57,2.66,4.17,4.47,6.06,6.88.15,1.83.65,3.67,0,5.5-3.4-1.61-5.41-5.45-8.86-6.51-6.53-2-7.88-7.12-9.15-12.63A26.55,26.55,0,0,1,75.92,95c.2-1,.44-2.43-1.07-2.65-1.21-.16-1.8,1-2.34,1.92A24,24,0,0,1,68.64,99c-3.67,3.82-7.07,7.9-9.18,12.88-1.39,3.29-2.91,6.53-4.48,9.73a6.24,6.24,0,0,1-4.51,3.59C49.37,124.88,48.67,123.79,47.47,123.68Z"/></g></g></svg>