<svg xmlns="http://www.w3.org/2000/svg" viewBox="0 0 309.3 203.96"><title>music2</title><g id="Layer_2" data-name="Layer 2"><g id="Layer_1-2" data-name="Layer 1"><path d="M403.92,376.16c.59,1.35-.38,3.09-2.18,3.88s-3.75.36-4.35-1,.38-3.09,2.18-3.89S403.32,374.81,403.92,376.16Z" transform="translate(-335.11 -180.26)"/><rect x="67.59" y="178.46" width="1.35" height="18.67"/><path d="M418.69,372.73c.6,1.35-.37,3.09-2.17,3.89s-3.75.35-4.35-1,.38-3.1,2.18-3.9S418.09,371.38,418.69,372.73Z" transform="translate(-335.11 -180.26)"/><rect x="82.4" y="174.51" width="1.35" height="18.67"/><polygon points="67.58 180.93 83.76 177.06 83.76 173.02 67.58 176.72 67.58 180.93"/><polygon points="68.24 183.02 67.93 181.7 82.92 178.21 83.23 179.53 68.24 183.02"/><path d="M547.89,329.34a2.49,2.49,0,0,1-4.37,1.94,2.49,2.49,0,0,1,4.37-1.94Z" transform="translate(-335.11 -180.26)"/><rect x="211.98" y="137.41" width="0.91" height="12.5"/><path d="M557.79,327.05c.41.9-.25,2.07-1.46,2.6a1.86,1.86,0,1,1,1.46-2.6Z" transform="translate(-335.11 -180.26)"/><rect x="221.89" y="134.76" width="0.91" height="12.5"/><polygon points="211.96 139.06 222.8 136.47 222.8 133.76 211.96 136.24 211.96 139.06"/><path d="M599.35,313.6a1.39,1.39,0,1,1-1.62-.37A1.19,1.19,0,0,1,599.35,313.6Z" transform="translate(-335.11 -180.26)"/><rect x="263.81" y="126.66" width="0.48" height="6.97"/><path d="M604.86,312.12a1.39,1.39,0,0,1-2.43,1.08,1.38,1.38,0,0,1,2.43-1.08Z" transform="translate(-335.11 -180.26)"/><rect x="269.34" y="125.18" width="0.48" height="6.97"/><path d="M609.87,310.49a1.39,1.39,0,1,1-1.62-.37A1.2,1.2,0,0,1,609.87,310.49Z" transform="translate(-335.11 -180.26)"/><rect x="274.33" y="123.58" width="0.48" height="6.97"/><polygon points="263.81 127.76 274.83 124.94 274.84 123.23 263.81 126.29 263.81 127.76"/><path d="M352.26,308.16c.58,2.94-2.12,6-6,6.73s-7.58-1-8.16-3.91,2.12-6,6-6.74S351.68,305.22,352.26,308.16Z" transform="translate(-335.11 -180.26)"/><rect x="336.48" y="290.52" width="37.89" height="1.95" transform="translate(-341.98 394.14) rotate(-77.34)"/><path d="M462.1,332.78c-.76-1.64.4-3.78,2.57-4.79s4.56-.5,5.32,1.14-.4,3.77-2.58,4.78S462.85,334.41,462.1,332.78Z" transform="translate(-335.11 -180.26)"/><rect x="462.08" y="331.52" width="1.17" height="22.75" transform="translate(-340.6 -172.72) rotate(-0.93)"/><path d="M446.19,371.74c.94,1.3.3,3.35-1.43,4.6s-3.89,1.21-4.82-.08-.3-3.36,1.43-4.61S445.26,370.45,446.19,371.74Z" transform="translate(-335.11 -180.26)"/><path d="M446.08,373.68a.51.51,0,0,1-.5-.42l-4.19-19.75a.53.53,0,0,1,.41-.62.51.51,0,0,1,.61.4l4.18,19.76a.52.52,0,0,1-.4.62Z" transform="translate(-335.11 -180.26)"/><path d="M450,360.76h-.08a.52.52,0,0,1-.44-.59c.34-2.2-1.82-3.17-4.06-4L445,356c-2.39-.91-3.08-1.57-3.58-2.55a.52.52,0,0,1,.93-.47c.32.63.75,1.19,3,2l.42.16c1.83.66,5.23,1.89,4.74,5.12A.52.52,0,0,1,450,360.76Z" transform="translate(-335.11 -180.26)"/><path d="M451,365.47h-.08a.51.51,0,0,1-.43-.59c.33-2.2-1.82-3.18-4.06-4l-.44-.16c-2.4-.9-3.09-1.57-3.58-2.55a.52.52,0,0,1,.23-.7.53.53,0,0,1,.7.23c.32.64.74,1.19,3,2.05l.42.16c1.83.66,5.23,1.89,4.73,5.11A.52.52,0,0,1,451,365.47Z" transform="translate(-335.11 -180.26)"/><path d="M398.52,328c.37,1.95-1.44,3.93-4,4.43s-5-.69-5.4-2.65,1.45-3.94,4.06-4.43S398.15,326,398.52,328Z" transform="translate(-335.11 -180.26)"/><path d="M397.91,329.56h-.15a.64.64,0,0,1-.48-.78l7.05-30a.65.65,0,0,1,.78-.48.64.64,0,0,1,.48.78l-7,30A.65.65,0,0,1,397.91,329.56Z" transform="translate(-335.11 -180.26)"/><path d="M410.41,311.82a.59.59,0,0,1-.36-.11.65.65,0,0,1-.18-.9c1.54-2.3-.38-4.54-2.48-6.64l-.4-.41c-2.23-2.28-2.65-3.4-2.7-4.77a.64.64,0,0,1,.63-.66h0a.64.64,0,0,1,.65.62c0,.89.21,1.74,2.32,3.91l.4.4c1.71,1.71,4.9,4.9,2.64,8.28A.66.66,0,0,1,410.41,311.82Z" transform="translate(-335.11 -180.26)"/><path d="M408.13,321.93a.66.66,0,0,1-.36-.11.65.65,0,0,1-.18-.9c1.54-2.3-.38-4.54-2.48-6.64l-.41-.41c-2.21-2.28-2.64-3.4-2.68-4.77a.63.63,0,0,1,.62-.67.6.6,0,0,1,.67.63c0,.89.22,1.74,2.32,3.91l.4.4c1.71,1.71,4.89,4.9,2.64,8.27A.65.65,0,0,1,408.13,321.93Z" transform="translate(-335.11 -180.26)"/><path d="M407,326.86a.66.66,0,0,1-.36-.11.65.65,0,0,1-.18-.9c1.54-2.3-.39-4.55-2.49-6.65l-.4-.4c-2.22-2.29-2.64-3.4-2.69-4.77a.66.66,0,0,1,.63-.67.61.61,0,0,1,.67.63c0,.89.21,1.74,2.32,3.91l.38.39c1.72,1.71,4.92,4.9,2.65,8.28A.63.63,0,0,1,407,326.86Z" transform="translate(-335.11 -180.26)"/><path d="M409.32,316.72a.66.66,0,0,1-.36-.11.65.65,0,0,1-.18-.9c1.54-2.3-.38-4.54-2.48-6.64l-.4-.41c-2.22-2.28-2.65-3.39-2.69-4.77a.63.63,0,0,1,.62-.66.59.59,0,0,1,.67.62c0,.89.22,1.74,2.32,3.91l.4.39c1.71,1.72,4.9,4.91,2.64,8.28A.65.65,0,0,1,409.32,316.72Z" transform="translate(-335.11 -180.26)"/><path d="M543.07,302.48c.83,1,.46,2.63-.82,3.73s-3,1.2-3.82.24-.45-2.63.83-3.72S542.25,301.53,543.07,302.48Z" transform="translate(-335.11 -180.26)"/><path d="M543,303.6a.4.4,0,0,1-.39-.29l-5.58-18.76a.41.41,0,0,1,.27-.51.43.43,0,0,1,.52.28l5.57,18.76a.41.41,0,0,1-.27.51Z" transform="translate(-335.11 -180.26)"/><path d="M544.32,289.86h0a.4.4,0,0,1-.38-.44c.13-1.75-1.64-2.38-3.46-2.87l-.36-.1c-2-.56-2.53-1-3-1.78a.41.41,0,0,1,.14-.57.4.4,0,0,1,.56.14c.3.48.67.89,2.52,1.42l.34.09c1.49.41,4.26,1.16,4.07,3.73A.41.41,0,0,1,544.32,289.86Z" transform="translate(-335.11 -180.26)"/><path d="M546.25,296.16h0a.42.42,0,0,1-.38-.44c.13-1.76-1.64-2.39-3.47-2.88l-.35-.1c-1.94-.55-2.53-1-3-1.78a.41.41,0,0,1,.13-.56.42.42,0,0,1,.57.13c.29.48.67.9,2.51,1.42l.34.09c1.49.41,4.26,1.16,4.07,3.74A.41.41,0,0,1,546.25,296.16Z" transform="translate(-335.11 -180.26)"/><path d="M545.26,292.91h0a.42.42,0,0,1-.39-.44c.13-1.76-1.64-2.39-3.47-2.88l-.35-.1c-1.94-.55-2.53-1-3-1.78a.41.41,0,0,1,.7-.43c.29.48.66.89,2.51,1.42l.34.1c1.49.4,4.26,1.15,4.08,3.73A.42.42,0,0,1,545.26,292.91Z" transform="translate(-335.11 -180.26)"/><path d="M359.62,331.47c-.61-2.62,1.73-5.4,5.22-6.21s6.82.67,7.42,3.29-1.73,5.39-5.23,6.2S360.22,334.08,359.62,331.47Z" transform="translate(-335.11 -180.26)"/><path d="M354.07,364.2h-.17a.88.88,0,0,1-.7-1l6.43-33.35a.9.9,0,0,1,1-.7.88.88,0,0,1,.69,1l-6.43,33.35A.87.87,0,0,1,354.07,364.2Z" transform="translate(-335.11 -180.26)"/><path d="M354.12,364a.84.84,0,0,1-.38-.08.88.88,0,0,1-.41-1.17c.81-1.67,1.95-2.81,5.95-4.4l.72-.28c3.75-1.43,7.35-3.14,6.72-6.83a.87.87,0,0,1,.72-1,.9.9,0,0,1,1,.72c.92,5.41-4.77,7.58-7.82,8.75l-.71.27c-3.79,1.51-4.49,2.46-5,3.54A.89.89,0,0,1,354.12,364Z" transform="translate(-335.11 -180.26)"/><path d="M572.21,291.11a2.63,2.63,0,1,1-2.08-3.08A2.62,2.62,0,0,1,572.21,291.11Z" transform="translate(-335.11 -180.26)"/><path d="M573.84,307.86l-.89-.17L576,291.8a7.18,7.18,0,0,1-4.61,2.1h0a5.3,5.3,0,0,1-3.84-1.92l.68-.61a4.33,4.33,0,0,0,3.17,1.62h0c1.54,0,3.22-.95,5-2.83a.44.44,0,0,1,.53-.09.45.45,0,0,1,.24.49Z" transform="translate(-335.11 -180.26)"/><path d="M570.94,297.73a2.63,2.63,0,1,1-2.09-3.08A2.63,2.63,0,0,1,570.94,297.73Z" transform="translate(-335.11 -180.26)"/><path d="M570.14,300.52h0a5.31,5.31,0,0,1-3.84-1.91l.67-.61a4.35,4.35,0,0,0,3.18,1.61c1.52,0,3.24-.93,5-2.83l.65.63C573.83,299.47,571.93,300.52,570.14,300.52Z" transform="translate(-335.11 -180.26)"/><path d="M489.64,345.16a2.89,2.89,0,1,1-3.41-2.24A2.87,2.87,0,0,1,489.64,345.16Z" transform="translate(-335.11 -180.26)"/><path d="M497.41,361.65l-3.62-17.4a7.81,7.81,0,0,1-3.82,4.09,5.79,5.79,0,0,1-4.7-.3l.42-.91a4.75,4.75,0,0,0,3.9.29c1.58-.64,2.89-2.32,3.9-5a.45.45,0,0,1,.5-.32.5.5,0,0,1,.45.4l3.95,18.95Z" transform="translate(-335.11 -180.26)"/><path d="M491.15,352.41a2.88,2.88,0,1,1-3.41-2.24A2.88,2.88,0,0,1,491.15,352.41Z" transform="translate(-335.11 -180.26)"/><path d="M489.58,356a6.57,6.57,0,0,1-2.8-.68l.42-.9a4.75,4.75,0,0,0,3.9.29c1.57-.64,2.88-2.32,3.89-5l.94.35c-1.12,3-2.62,4.82-4.45,5.57A5.1,5.1,0,0,1,489.58,356Z" transform="translate(-335.11 -180.26)"/><rect x="183.38" y="127.49" width="0.51" height="19.64"/><rect x="183.38" y="127.49" width="0.51" height="19.64"/><rect x="187.59" y="125.83" width="0.51" height="19.64"/><polygon points="191.78 135.89 180.79 132.65 180.93 132.15 191.92 135.4 191.78 135.89"/><polygon points="190.88 140.74 179.89 137.49 180.03 137 191.03 140.24 190.88 140.74"/><polygon points="190.88 140.74 179.89 137.49 180.03 137 191.03 140.24 190.88 140.74"/><rect x="281.37" y="136.3" width="0.45" height="10.15"/><rect x="281.37" y="136.3" width="0.45" height="10.15"/><rect x="283.55" y="135.44" width="0.45" height="10.15"/><polygon points="285.78 140.74 280.1 139.06 280.23 138.62 285.91 140.3 285.78 140.74"/><polygon points="285.31 143.23 279.64 141.56 279.77 141.12 285.44 142.8 285.31 143.23"/><polygon points="285.31 143.23 279.64 141.56 279.77 141.12 285.44 142.8 285.31 143.23"/><path d="M444.34,332.38a1.47,1.47,0,1,1-1.47-1.46A1.47,1.47,0,0,1,444.34,332.38Z" transform="translate(-335.11 -180.26)"/><path d="M444.34,338.6a1.47,1.47,0,1,1-1.47-1.46A1.47,1.47,0,0,1,444.34,338.6Z" transform="translate(-335.11 -180.26)"/><path d="M431.88,332a2.73,2.73,0,1,1-2.73-2.74A2.73,2.73,0,0,1,431.88,332Z" transform="translate(-335.11 -180.26)"/><path d="M431.22,349a17.47,17.47,0,0,0,4.18-3.65,17,17,0,0,0,2.93-4.82,12.74,12.74,0,0,0,.82-3,12.47,12.47,0,0,0,.14-3.24,6.1,6.1,0,0,0-3-4.8,6,6,0,0,0-4.77-.46,3.45,3.45,0,0,0-2.21,2,3.23,3.23,0,0,0-.23,1.08,1.36,1.36,0,1,1-2.72.08v-.33a5.35,5.35,0,0,1,.57-1.91,6,6,0,0,1,3.92-3.09,8,8,0,0,1,6.41,1.08,7.73,7.73,0,0,1,3.34,6.33,15.84,15.84,0,0,1-.35,3.49,13.77,13.77,0,0,1-1,3.22,17.71,17.71,0,0,1-3.31,4.91,18.18,18.18,0,0,1-4.49,3.57.23.23,0,0,1-.31-.08A.25.25,0,0,1,431.22,349Z" transform="translate(-335.11 -180.26)"/><path d="M580.76,328.87c-6.41-4.9,2-9.39,2-9.39-1.76-.87-3.47-2.22-1.92-5,1.7-3.06,7.57-3.93,5.06-7.5,0,0,5,.83,1.63,5.79-2.13,3.12-5.77,3.22-2.39,7C585.18,319.72,578.59,324,580.76,328.87Z" transform="translate(-335.11 -180.26)"/><path d="M335.38,281.26l3.63,1.13c1.19.34,2.64.83,4.33,1.48s3.65,1.34,5.77,2.29c8.6,3.54,20.21,10.12,33.15,19.34,6.5,4.56,13.38,9.73,20.89,14.83s15.7,10.21,25.05,13.47a52.21,52.21,0,0,0,29.94,1.87,73.47,73.47,0,0,0,14.71-5.29,117.09,117.09,0,0,0,13.6-8.05c8.77-5.91,16.93-12.7,25.72-18.33a78,78,0,0,1,13.75-7.13,55.7,55.7,0,0,1,14.73-3.34c10-.8,19.53,1,28.33,3.14s17,5,24.49,7.58c14.94,5.34,27.43,9.76,36.43,12,4.47,1.17,8,1.92,10.48,2.35l3.75.66-3.75-.66c-2.45-.41-6-1.15-10.49-2.31-9-2.19-21.51-6.57-36.47-11.88-7.49-2.6-15.66-5.33-24.48-7.5s-18.38-3.89-28.27-3.06A55,55,0,0,0,526,297.18a77.35,77.35,0,0,0-13.67,7.13c-8.75,5.64-16.89,12.45-25.66,18.39a118.22,118.22,0,0,1-13.64,8.13,74.18,74.18,0,0,1-14.81,5.37A53,53,0,0,1,428,334.38c-9.44-3.26-17.69-8.41-25.23-13.47s-14.43-10.25-20.94-14.78c-12.94-9.17-24.5-15.67-33-19.17-2.12-.94-4-1.65-5.73-2.25s-3.11-1.12-4.3-1.46l-3.64-1.12Z" transform="translate(-335.11 -180.26)"/><path d="M335.37,296.13l3.59,1.05c2.34.69,5.79,1.84,10,3.55a161.13,161.13,0,0,1,14.92,7c5.62,3,11.8,6.64,18.48,10.72s13.86,8.55,21.75,12.77,16.54,8.14,26.06,10.26a62,62,0,0,0,29.7-.46c10-2.43,19.23-7.5,27.94-13.15s16.87-12.25,25.55-17.76,18.2-9.63,28-10.56a69.33,69.33,0,0,1,14.4,0c4.65.77,9.24,1.21,13.61,2.22,8.78,1.86,16.93,4.2,24.39,6.54s14.28,4.55,20.37,6.35S625.58,318,630,319s8,1.61,10.37,2.14l3.68.7-3.69-.69c-2.38-.52-6-.92-10.37-2.12s-9.8-2.44-15.87-4.32-12.91-4-20.39-6.3-15.63-4.62-24.39-6.46c-4.36-1-9-1.43-13.6-2.19a68.7,68.7,0,0,0-14.33.08c-9.76.94-19.24,5.09-27.85,10.58s-16.79,12.06-25.49,17.83-18,10.81-28.06,13.29a62.63,62.63,0,0,1-30,.55c-9.6-2.11-18.33-6.07-26.25-10.26s-15.12-8.7-21.82-12.73-12.86-7.67-18.47-10.64a159.1,159.1,0,0,0-14.85-7c-4.23-1.7-7.59-2.81-9.94-3.5l-3.6-1Z" transform="translate(-335.11 -180.26)"/><path d="M335.36,311l3.57.95a97.91,97.91,0,0,1,10,3c2.13.78,4.53,1.51,7,2.55l8.12,3.43,9,4.29,9.89,5c6.88,3.5,14.28,7.41,22.38,10.94s16.86,6.84,26.42,8.19a73.91,73.91,0,0,0,29.36-1.65c2.41-.75,4.78-1.67,7.18-2.5,1.19-.44,2.41-.83,3.59-1.31l3.42-1.73,6.86-3.47c2.19-1.31,4.44-2.6,6.57-4,8.66-5.54,16.76-11.94,25.36-17.34s17.85-9.64,27.45-11.05a68.75,68.75,0,0,1,14.2-.72c4.62.52,9.18.66,13.53,1.48a248.13,248.13,0,0,1,24.39,5.16l20.4,5.3c6.06,1.6,11.4,2.79,15.81,3.72s7.92,1.38,10.29,1.84l3.65.6-3.65-.59c-2.37-.45-5.91-.79-10.3-1.81s-9.75-2.09-15.82-3.68l-20.41-5.25c-7.48-1.9-15.65-3.76-24.39-5.08-4.34-.81-8.91-.93-13.52-1.45a68.83,68.83,0,0,0-14.13.76c-9.55,1.43-18.83,5.61-27.31,11.08S497.75,329.47,489.07,335c-2.15,1.44-4.37,2.73-6.58,4.06l-6.88,3.5-3.43,1.75c-1.19.48-2.41.88-3.61,1.32-2.41.85-4.79,1.78-7.21,2.54a74.6,74.6,0,0,1-29.6,1.74c-9.64-1.33-18.45-4.78-26.61-8.16s-15.56-7.42-22.45-10.89l-9.89-5-9-4.25-8.08-3.39c-2.51-1-4.89-1.74-7-2.51a97.77,97.77,0,0,0-10-2.95l-3.57-.94Z" transform="translate(-335.11 -180.26)"/><path d="M335.34,325.87l3.57.78c2.33.55,5.78,1.12,10.06,2.47,4.33,1.16,9.46,2.92,15.3,5S376.57,339,383.6,342s14.67,6.16,22.9,9.09a126,126,0,0,0,26.65,6.31,83.21,83.21,0,0,0,29-2.61c4.73-1.6,9.57-3,14-5.46A122,122,0,0,0,489.59,342c8.65-5.35,16.89-11.35,25.42-16.64,8.59-5.14,17.57-9.54,27-11.59,2.27-.8,4.69-.79,7-1.19s4.61-.7,6.92-.81l6.82,0h3.34l3.29.29c4.37.37,8.62.71,12.68,1.46,4.08.59,8,1.27,11.73,2.08,7.5,1.43,14.31,3.08,20.39,4.34s11.36,2.38,15.75,3.18,7.86,1.15,10.22,1.54l3.62.49-3.62-.48c-2.36-.38-5.87-.62-10.23-1.52s-9.7-1.78-15.76-3.12-12.89-2.89-20.4-4.29c-3.73-.79-7.65-1.46-11.73-2-4-.74-8.29-1.08-12.65-1.43l-3.29-.29-3.34,0-6.82,0c-2.27.12-4.57.56-6.89.83s-4.71.4-7,1.21c-9.34,2.06-18.27,6.48-26.83,11.62-8.49,5.31-16.72,11.33-25.38,16.72a123.17,123.17,0,0,1-13.38,7.35c-4.49,2.43-9.35,3.91-14.1,5.53a83.73,83.73,0,0,1-29.25,2.7,126.39,126.39,0,0,1-26.82-6.27c-8.26-2.91-15.92-6.08-23-9s-13.53-5.57-19.33-7.77-10.94-3.83-15.23-5c-4.23-1.33-7.71-1.89-10-2.43l-3.57-.77Z" transform="translate(-335.11 -180.26)"/><path d="M335.32,340.74l3.57.59c2.34.41,5.78.85,10.09,1.91,8.7,1.8,20.81,5.44,35.2,10.17,7.2,2.36,15,4.79,23.39,7a147.23,147.23,0,0,0,26.82,4.43,90.81,90.81,0,0,0,28.78-3.23l7.1-2.26c2.3-1,4.58-2,6.87-3,1.14-.52,2.31-1,3.42-1.55l3.3-1.85c2.2-1.24,4.43-2.42,6.6-3.72,8.58-5.28,16.86-11.07,25.26-16.4,8.5-5.16,17.34-9.55,26.49-12.13a61.25,61.25,0,0,1,6.89-1.47,65,65,0,0,1,6.82-1.12c4.55-.19,9-.81,13.34-.49l6.42.19c2.11.08,4.17.36,6.2.53l6,.58,5.74.8c7.51,1,14.34,2.24,20.42,3.18s11.38,1.81,15.75,2.42,7.84.88,10.18,1.18l3.62.37-3.62-.36c-2.34-.29-5.82-.46-10.19-1.15S620.1,324,614,323s-12.92-2.19-20.43-3.13l-5.74-.79-6-.55c-2-.17-4.1-.44-6.2-.52l-6.41-.17c-4.33-.3-8.78.32-13.33.53a64.77,64.77,0,0,0-6.78,1.13,58.72,58.72,0,0,0-6.86,1.49c-9.11,2.6-17.9,7-26.37,12.16-8.37,5.35-16.64,11.15-25.24,16.49-2.17,1.3-4.39,2.49-6.58,3.74l-3.3,1.85c-1.14.58-2.3,1.05-3.45,1.58-2.3,1-4.58,2.1-6.9,3.06l-7.14,2.3a91.33,91.33,0,0,1-28.95,3.33,147.54,147.54,0,0,1-27-4.37c-8.4-2.24-16.26-4.66-23.45-7-14.4-4.69-26.51-8.29-35.14-10.05-4.27-1-7.73-1.47-10.06-1.87l-3.58-.58Z" transform="translate(-335.11 -180.26)"/><path d="M335.29,355.61l3.58.35c2.34.23,5.78.51,10.13,1.21,8.73,1.19,21,3.72,35.72,7s31.93,7,50.74,7.3a105.88,105.88,0,0,0,28.59-3.55c9.54-2.47,18.67-6.87,27.22-12.06s16.69-11.1,25.06-16.35,17.08-9.79,26.15-12.43a73.28,73.28,0,0,1,13.61-2.57c4.51-.34,8.92-.89,13.24-.78l6.38-.06,6.18.25c4.06.14,8,.42,11.71.77,7.51.58,14.35,1.44,20.43,2.08l15.74,1.69c4.37.47,7.82.63,10.16.84l3.59.27-3.59-.26c-2.35-.2-5.79-.35-10.16-.81L614,326.82c-6.08-.63-12.93-1.47-20.43-2-3.75-.34-7.65-.62-11.71-.74l-6.18-.24-6.36.08c-8.59.23-17.77.75-26.79,3.42s-17.72,7.14-26,12.46-16.42,11.24-25,16.43-17.71,9.67-27.3,12.18a106.06,106.06,0,0,1-28.75,3.66c-18.9-.27-36.19-4.07-50.89-7.18s-27-5.69-35.67-6.84c-4.32-.68-7.76-.95-10.1-1.18l-3.59-.34Z" transform="translate(-335.11 -180.26)"/><path d="M494.46,331.18a1,1,0,1,1-1.34-.63A1,1,0,0,1,494.46,331.18Z" transform="translate(-335.11 -180.26)"/><path d="M492.78,331.87a1.12,1.12,0,0,0,.48.51,1.54,1.54,0,0,0,1.87-.26,2.38,2.38,0,0,0-.14-2.9c-.66-1.12-1.47-2.36-2.31-3.74S490.9,322.61,490,321a49.41,49.41,0,0,1-2.71-5.19c-.22-.47-.43-.95-.66-1.43a5.44,5.44,0,0,1-.52-1.64l0-.11v-.13a1.7,1.7,0,0,1,0-.21,2.94,2.94,0,0,1,.05-.51,1.63,1.63,0,0,1,.78-1.13.9.9,0,0,1,.85,0,3.9,3.9,0,0,1,.55.41,6.92,6.92,0,0,1,.66.63,8,8,0,0,1,1.42,3.17,6.24,6.24,0,0,1-.13,3.53,10.67,10.67,0,0,1-.65,1.65c-.06.13-.14.26-.21.38l-.18.34c-.14.24-.25.46-.35.67a7.68,7.68,0,0,0-.8,2.74,3.24,3.24,0,0,0,.82,2.43,3.94,3.94,0,0,0,2.44,1.1,5.62,5.62,0,0,0,4.91-2,2.81,2.81,0,0,0,.58-2.35,3.3,3.3,0,0,0-1.25-1.83,3,3,0,0,0-3.42-.2,3.1,3.1,0,0,0-1.4,2.43,3.78,3.78,0,0,0,.44,2,6.84,6.84,0,0,0,.39.67l-.16-.12a4.16,4.16,0,0,1-.44-.4,3.66,3.66,0,0,1,.51-5.5,3.62,3.62,0,0,1,2.33-.7,3.66,3.66,0,0,1,2.39,1.11,4.07,4.07,0,0,1,1.19,2.48,3.92,3.92,0,0,1-.77,2.73,6.84,6.84,0,0,1-5.35,2.55,4.86,4.86,0,0,1-3.17-1.13,4.53,4.53,0,0,1-1.49-3.25,8.46,8.46,0,0,1,.59-3.47c.11-.29.21-.55.32-.79l.33-.73a10.69,10.69,0,0,0,.51-1.37,21.93,21.93,0,0,0,.55-2.84,5.28,5.28,0,0,0-.3-2.49c-.12-.33-.38-.83-.8-.8-.68,0-.55,1.22-.54,1.66a6.94,6.94,0,0,0,.46,2.25,36.75,36.75,0,0,0,2.57,5.18c.94,1.59,1.88,3.07,2.76,4.42s1.69,2.6,2.36,3.74c.16.3.31.56.45.89a2.64,2.64,0,0,1,.17.94,1.92,1.92,0,0,1-.68,1.53,2.06,2.06,0,0,1-1.25.46,1.94,1.94,0,0,1-.94-.24,1.62,1.62,0,0,1-.61-.55Z" transform="translate(-335.11 -180.26)"/><path d="M641.25,329.84a.57.57,0,0,1-.59.56.58.58,0,1,1,.59-.56Z" transform="translate(-335.11 -180.26)"/><path d="M640.25,329.85a.69.69,0,0,0,.15.36.83.83,0,0,0,1,.24,1.31,1.31,0,0,0,.51-1.51c-.12-.71-.29-1.51-.45-2.39s-.33-1.83-.49-2.85a28.41,28.41,0,0,1-.35-3.21c0-.29,0-.57,0-.86a3.09,3.09,0,0,1,0-.95l0-.06s0,0,0,0v0l0-.11c0-.09.08-.16.13-.25a.93.93,0,0,1,.63-.42.52.52,0,0,1,.44.18,2,2,0,0,1,.19.32,2.23,2.23,0,0,1,.21.46,4.36,4.36,0,0,1,.1,1.91,3.48,3.48,0,0,1-.77,1.79,5,5,0,0,1-.67.71,1.37,1.37,0,0,1-.18.16l-.16.14c-.12.09-.22.19-.32.27a4.4,4.4,0,0,0-1,1.25,1.85,1.85,0,0,0-.06,1.42,2.23,2.23,0,0,0,1,1.05,3.08,3.08,0,0,0,2.92,0,1.55,1.55,0,0,0,.77-1.09,1.73,1.73,0,0,0-.28-1.19,1.65,1.65,0,0,0-1.71-.79,1.74,1.74,0,0,0-1.21,1,2.13,2.13,0,0,0-.17,1.1,3.16,3.16,0,0,0,.07.42l-.05-.09a1,1,0,0,1-.15-.3,2,2,0,0,1-.09-1.27,2,2,0,0,1,2.79-1.35,2.09,2.09,0,0,1,1,1.06,2.23,2.23,0,0,1,.11,1.51,2.17,2.17,0,0,1-.94,1.25,3.83,3.83,0,0,1-3.27.24,2.71,2.71,0,0,1-1.4-1.22,2.5,2.5,0,0,1-.11-2,4.43,4.43,0,0,1,1-1.66,3.75,3.75,0,0,1,.33-.35l.31-.31a5.13,5.13,0,0,0,.54-.6,12.32,12.32,0,0,0,.85-1.35,3,3,0,0,0,.35-1.34c0-.19,0-.5-.26-.57s-.52.51-.6.75a3.72,3.72,0,0,0-.22,1.24,20.22,20.22,0,0,0,.28,3.18c.17,1,.36,2,.54,2.83s.35,1.67.46,2.4a4.71,4.71,0,0,1,.05.54,1.13,1.13,0,0,1-.1.52,1,1,0,0,1-.65.65,1.16,1.16,0,0,1-.74,0,1.14,1.14,0,0,1-.43-.31,1,1,0,0,1-.21-.41Z" transform="translate(-335.11 -180.26)"/><path d="M607.24,292.58a32,32,0,0,0-16-16.66,31.32,31.32,0,0,0-21.13-1.68,32.32,32.32,0,0,0-10,4.58q-.43-2.55-.85-5.15c-.55-3.31-1.06-6.68-1.53-10.08a77.54,77.54,0,0,0,8.67-9.58c6.49-8,11.22-17.86,12.33-28.29s1.72-20.91-1.63-30.26c-.72-2.43-1.72-4-3.32-7.2a28.83,28.83,0,0,0-3.09-5.09,8.16,8.16,0,0,0-6.88-2.88c-5.61.85-8.17,4.28-9.93,6.71a26.83,26.83,0,0,0-2.07,4c-.34.75-.5,1.24-.7,1.77l-.15.41c-.12.42-.09.39-.15.63l-.26,1c-1.38,5.28-1.14,10.24-.89,14.95s.51,9.16.77,13.71c.18,7.19.76,14.22,1.53,21.11a96.46,96.46,0,0,1-7.62,8.47l-4.95,4.87c-1.64,1.57-3.36,3.41-5.12,5.41a73.5,73.5,0,0,0-15.79,26.32c-3.43,9.91-3.23,21.74,1.83,31.1S533.74,336.5,542.53,340A61.54,61.54,0,0,0,568.62,344c.84,4.49,1.6,8.8,2.23,12.91,2.67,10.84-1.17,20.6-7.92,24a13.4,13.4,0,0,1-13-.94,8.91,8.91,0,0,0,1,.09,9.12,9.12,0,1,0-8.85-9.36,9.4,9.4,0,0,0,.05,1.19h0a9.13,9.13,0,0,0,2.39,5.28c.26.36.53.74.85,1.12a17.06,17.06,0,0,0,6.93,4.91,17.78,17.78,0,0,0,11.58.25,16.93,16.93,0,0,0,10.36-10.27,21.14,21.14,0,0,0,1.6-8.2,76,76,0,0,0-.89-8.67q-1-6.11-2.2-12.7a57.86,57.86,0,0,0,21.33-7.33c7.19-4.59,12.79-11.66,14.88-19.76A35.79,35.79,0,0,0,607.24,292.58Zm-49-88.88c1.3-3.65,3.93-13.66,9.58-11.86,3.56,1.13,4,6,4,9.09a46,46,0,0,1-5.46,21.18,193,193,0,0,1-10.94,17.83c-.34-5.46-.55-11-.57-16.55A59,59,0,0,1,558.24,203.7ZM545.68,333.1c-7.16-3.76-13.38-9.54-16.26-16.68s-2.31-15.08,1-22.37,9-13.89,15.16-19.74c1.46-1.38,3.06-2.83,5-4.36l2.56-2.15c.61-.51,1.24-1,1.85-1.56.4,2.67.79,5.33,1.17,7.95.36,2.33.74,4.63,1.11,6.92a31.54,31.54,0,0,0-8.61,36.24,31.18,31.18,0,0,0,2.3,4.63l.92,1.49a54.42,54.42,0,0,1-1.09-6.67,34,34,0,0,1,2.69-17.45,26.28,26.28,0,0,1,5.52-7.94c1.67,9.65,3.37,18.9,5,27.69,1.22,6.79,2.49,13.29,3.67,19.48A48.53,48.53,0,0,1,545.68,333.1ZM604,315.35a24.32,24.32,0,0,1-12.09,17.24,45.77,45.77,0,0,1-20,5.9c-1.24-6.42-2.63-13.14-4.1-20.15-2-9.31-3.94-19.19-5.82-29.53A26.3,26.3,0,0,1,572.51,284c9.28-1.87,20.42,1.93,27.13,12.5A27.86,27.86,0,0,1,604,315.35Z" transform="translate(-335.11 -180.26)"/></g></g></svg>