<svg xmlns="http://www.w3.org/2000/svg" viewBox="0 0 94.07 203.96"><title>music-sign</title><g id="Layer_2" data-name="Layer 2"><g id="Layer_1-2" data-name="Layer 1"><path d="M607.24,292.58a32,32,0,0,0-16-16.66,31.32,31.32,0,0,0-21.13-1.68,32.32,32.32,0,0,0-10,4.58q-.43-2.55-.85-5.15c-.55-3.31-1.06-6.68-1.53-10.08a77.54,77.54,0,0,0,8.67-9.58c6.49-8,11.22-17.86,12.33-28.29s1.72-20.91-1.63-30.26c-.72-2.43-1.72-4-3.32-7.2a28.83,28.83,0,0,0-3.09-5.09,8.16,8.16,0,0,0-6.88-2.88c-5.61.85-8.17,4.28-9.93,6.71a26.83,26.83,0,0,0-2.07,4c-.34.75-.5,1.24-.7,1.77l-.15.41c-.12.42-.09.39-.15.63l-.26,1c-1.38,5.28-1.14,10.24-.89,14.95s.51,9.16.77,13.71c.18,7.19.76,14.22,1.53,21.11a96.46,96.46,0,0,1-7.62,8.47l-4.95,4.87c-1.64,1.57-3.36,3.41-5.12,5.41a73.5,73.5,0,0,0-15.79,26.32c-3.43,9.91-3.23,21.74,1.83,31.1S533.74,336.5,542.53,340A61.54,61.54,0,0,0,568.62,344c.84,4.49,1.6,8.8,2.23,12.91,2.67,10.84-1.17,20.6-7.92,24a13.4,13.4,0,0,1-13-.94,8.91,8.91,0,0,0,1,.09,9.12,9.12,0,1,0-8.85-9.36,9.4,9.4,0,0,0,.05,1.19h0a9.13,9.13,0,0,0,2.39,5.28c.26.36.53.74.85,1.12a17.06,17.06,0,0,0,6.93,4.91,17.78,17.78,0,0,0,11.58.25,16.93,16.93,0,0,0,10.36-10.27,21.14,21.14,0,0,0,1.6-8.2,76,76,0,0,0-.89-8.67q-1-6.11-2.2-12.7a57.86,57.86,0,0,0,21.33-7.33c7.19-4.59,12.79-11.66,14.88-19.76A35.79,35.79,0,0,0,607.24,292.58Zm-49-88.88c1.3-3.65,3.93-13.66,9.58-11.86,3.56,1.13,4,6,4,9.09a46,46,0,0,1-5.46,21.18,193,193,0,0,1-10.94,17.83c-.34-5.46-.55-11-.57-16.55A59,59,0,0,1,558.24,203.7ZM545.68,333.1c-7.16-3.76-13.38-9.54-16.26-16.68s-2.31-15.08,1-22.37,9-13.89,15.16-19.74c1.46-1.38,3.06-2.83,5-4.36l2.56-2.15c.61-.51,1.24-1,1.85-1.56.4,2.67.79,5.33,1.17,7.95.36,2.33.74,4.63,1.11,6.92a31.54,31.54,0,0,0-8.61,36.24,31.18,31.18,0,0,0,2.3,4.63l.92,1.49a54.42,54.42,0,0,1-1.09-6.67,34,34,0,0,1,2.69-17.45,26.28,26.28,0,0,1,5.52-7.94c1.67,9.65,3.37,18.9,5,27.69,1.22,6.79,2.49,13.29,3.67,19.48A48.53,48.53,0,0,1,545.68,333.1ZM604,315.35a24.32,24.32,0,0,1-12.09,17.24,45.77,45.77,0,0,1-20,5.9c-1.24-6.42-2.63-13.14-4.1-20.15-2-9.31-3.94-19.19-5.82-29.53A26.3,26.3,0,0,1,572.51,284c9.28-1.87,20.42,1.93,27.13,12.5A27.86,27.86,0,0,1,604,315.35Z" transform="translate(-516.24 -180.26)"/></g></g></svg>